<mxfile host="app.diagrams.net" modified="2024-03-18T15:09:54.085Z" agent="Mozilla/5.0 (Windows NT 10.0; Win64; x64) AppleWebKit/537.36 (KHTML, like Gecko) Chrome/122.0.0.0 Safari/537.36" etag="_uJIUTK4codUd0gp2iCw" version="24.0.5" type="device">
  <diagram name="Page-1" id="q54hTL8UhtN5hbLfCDW5">
    <mxGraphModel dx="1518" dy="614" grid="1" gridSize="10" guides="1" tooltips="1" connect="1" arrows="1" fold="1" page="1" pageScale="1" pageWidth="827" pageHeight="1169" math="0" shadow="0">
      <root>
        <mxCell id="0" />
        <mxCell id="1" parent="0" />
        <mxCell id="9H8sjiTVigI2UV8qii5S-18" style="edgeStyle=none;rounded=0;orthogonalLoop=1;jettySize=auto;html=1;" edge="1" parent="1" source="9H8sjiTVigI2UV8qii5S-2">
          <mxGeometry relative="1" as="geometry">
            <mxPoint x="280" y="150" as="targetPoint" />
          </mxGeometry>
        </mxCell>
        <mxCell id="9H8sjiTVigI2UV8qii5S-2" value="Client" style="swimlane;whiteSpace=wrap;html=1;" vertex="1" parent="1">
          <mxGeometry x="20" y="50" width="150" height="180" as="geometry" />
        </mxCell>
        <mxCell id="9H8sjiTVigI2UV8qii5S-5" value="-ID&lt;div&gt;Name&lt;/div&gt;&lt;div&gt;Lastname&lt;/div&gt;&lt;div&gt;Address&lt;/div&gt;&lt;div&gt;&lt;br&gt;&lt;/div&gt;" style="text;html=1;align=left;verticalAlign=middle;resizable=0;points=[];autosize=1;strokeColor=none;fillColor=none;" vertex="1" parent="9H8sjiTVigI2UV8qii5S-2">
          <mxGeometry y="30" width="80" height="90" as="geometry" />
        </mxCell>
        <mxCell id="9H8sjiTVigI2UV8qii5S-24" style="edgeStyle=none;rounded=0;orthogonalLoop=1;jettySize=auto;html=1;entryX=0.5;entryY=0;entryDx=0;entryDy=0;" edge="1" parent="1" source="9H8sjiTVigI2UV8qii5S-4" target="9H8sjiTVigI2UV8qii5S-23">
          <mxGeometry relative="1" as="geometry" />
        </mxCell>
        <mxCell id="9H8sjiTVigI2UV8qii5S-4" value="Cart" style="swimlane;whiteSpace=wrap;html=1;startSize=20;" vertex="1" parent="1">
          <mxGeometry x="290" y="70" width="160" height="140" as="geometry" />
        </mxCell>
        <mxCell id="9H8sjiTVigI2UV8qii5S-13" value="&lt;div&gt;ClientProductID&lt;/div&gt;ClientID&lt;div&gt;ProductID&lt;/div&gt;&lt;div&gt;Date&lt;/div&gt;&lt;div&gt;Quantity&lt;/div&gt;" style="text;html=1;align=left;verticalAlign=middle;resizable=0;points=[];autosize=1;strokeColor=none;fillColor=none;" vertex="1" parent="9H8sjiTVigI2UV8qii5S-4">
          <mxGeometry y="20" width="110" height="90" as="geometry" />
        </mxCell>
        <mxCell id="9H8sjiTVigI2UV8qii5S-22" style="edgeStyle=none;rounded=0;orthogonalLoop=1;jettySize=auto;html=1;entryX=1;entryY=0.5;entryDx=0;entryDy=0;" edge="1" parent="1" source="9H8sjiTVigI2UV8qii5S-9" target="9H8sjiTVigI2UV8qii5S-4">
          <mxGeometry relative="1" as="geometry" />
        </mxCell>
        <mxCell id="9H8sjiTVigI2UV8qii5S-9" value="Product" style="swimlane;whiteSpace=wrap;html=1;startSize=20;" vertex="1" parent="1">
          <mxGeometry x="640" y="40" width="150" height="180" as="geometry" />
        </mxCell>
        <mxCell id="9H8sjiTVigI2UV8qii5S-10" value="ProductID" style="text;html=1;align=center;verticalAlign=middle;resizable=0;points=[];autosize=1;strokeColor=none;fillColor=none;" vertex="1" parent="9H8sjiTVigI2UV8qii5S-9">
          <mxGeometry y="30" width="80" height="30" as="geometry" />
        </mxCell>
        <mxCell id="9H8sjiTVigI2UV8qii5S-25" style="edgeStyle=none;rounded=0;orthogonalLoop=1;jettySize=auto;html=1;entryX=1;entryY=0.5;entryDx=0;entryDy=0;" edge="1" parent="1" source="9H8sjiTVigI2UV8qii5S-20" target="9H8sjiTVigI2UV8qii5S-23">
          <mxGeometry relative="1" as="geometry" />
        </mxCell>
        <mxCell id="9H8sjiTVigI2UV8qii5S-20" value="Orders" style="swimlane;whiteSpace=wrap;html=1;" vertex="1" parent="1">
          <mxGeometry x="570" y="290" width="200" height="200" as="geometry" />
        </mxCell>
        <mxCell id="9H8sjiTVigI2UV8qii5S-23" value="CartOrder_junctiontable" style="swimlane;whiteSpace=wrap;html=1;startSize=23;" vertex="1" parent="1">
          <mxGeometry x="280" y="300" width="200" height="200" as="geometry" />
        </mxCell>
      </root>
    </mxGraphModel>
  </diagram>
</mxfile>
